<svg xmlns="http://www.w3.org/2000/svg" viewBox="0 0 64 64"><defs><style>.cls-1{isolation:isolate;}.cls-2{fill:#fb0;}.cls-3,.cls-8{fill:#fff;}.cls-4,.cls-5{fill:none;}.cls-4{stroke:#000;stroke-linecap:round;stroke-linejoin:round;stroke-width:2px;}.cls-6{opacity:0.25;mix-blend-mode:multiply;}.cls-7,.cls-8{mix-blend-mode:overlay;}</style></defs><title>Icon Color</title><g class="cls-1"><g id="Layer_1" data-name="Layer 1"><g id="Vector"><path class="cls-2" d="M48.85,32.9A16.85,16.85,0,1,1,32,16.05,16.85,16.85,0,0,1,48.85,32.9Z"/><path class="cls-2" d="M37.24,12.74a.72.72,0,0,1-.4-.12s-1.43-.81-4.84-.81-4.83.81-4.84.81a.76.76,0,0,1-1.06-1l5.24-9.08a.77.77,0,0,1,1.32,0L37.9,11.6a.77.77,0,0,1-.66,1.14Z"/><path class="cls-2" d="M23.05,14.09a.94.94,0,0,1-.38.17s-1.62.29-4.23,2.48-3.18,3.73-3.19,3.74a.76.76,0,0,1-1.46-.11L12,10.05a.75.75,0,0,1,.26-.71A.76.76,0,0,1,13,9.21l9.85,3.58a.77.77,0,0,1,.5.8A.85.85,0,0,1,23.05,14.09Z"/><path class="cls-2" d="M13.05,24.24a.8.8,0,0,1-.18.37s-1.06,1.28-1.65,4.63,0,4.9,0,4.91a.77.77,0,0,1-.27.89A.75.75,0,0,1,10,35L2,28.28A.77.77,0,0,1,2.19,27L12,23.4a.76.76,0,0,1,.89.29A.78.78,0,0,1,13.05,24.24Z"/><path class="cls-2" d="M11.91,38.45a.7.7,0,0,1,.1.4s0,1.65,1.72,4.6,3.11,3.78,3.13,3.79a.77.77,0,0,1,.37.85.76.76,0,0,1-.73.57H6a.76.76,0,0,1-.66-.38.77.77,0,0,1,0-.75l5.24-9.08a.75.75,0,0,1,1.31,0Z"/><path class="cls-2" d="M20.18,50.06a.73.73,0,0,1,.33.25s1.07,1.26,4.27,2.42,4.82.89,4.83.89a.78.78,0,0,1,.84.42.75.75,0,0,1-.2.9l-8,6.74a.76.76,0,0,1-.74.13.78.78,0,0,1-.49-.58L19.17,50.91a.76.76,0,0,1,.44-.83A.8.8,0,0,1,20.18,50.06Z"/><path class="cls-2" d="M34,53.65a.75.75,0,0,1,.42,0s1.63.28,4.83-.89,4.26-2.41,4.27-2.42a.76.76,0,0,1,.9-.22.75.75,0,0,1,.44.82L43,61.23a.76.76,0,0,1-1.24.45l-8-6.74a.75.75,0,0,1-.2-.91A.78.78,0,0,1,34,53.65Z"/><path class="cls-2" d="M46.85,47.53a.81.81,0,0,1,.29-.29s1.43-.84,3.13-3.79S52,38.87,52,38.85a.77.77,0,0,1,.55-.75.76.76,0,0,1,.86.35l5.24,9.08a.77.77,0,0,1,0,.75.76.76,0,0,1-.66.38H47.5a.75.75,0,0,1-.73-.57A.72.72,0,0,1,46.85,47.53Z"/><path class="cls-2" d="M52.77,34.56a.84.84,0,0,1,0-.41s.56-1.56,0-4.91-1.64-4.61-1.65-4.63a.75.75,0,0,1-.05-.92A.74.74,0,0,1,52,23.4L61.81,27a.77.77,0,0,1,.48.58.74.74,0,0,1-.26.71L54,35a.75.75,0,0,1-.94,0A.8.8,0,0,1,52.77,34.56Z"/><path class="cls-2" d="M49,20.82a.67.67,0,0,1-.23-.34s-.58-1.55-3.19-3.74-4.22-2.48-4.23-2.49a.75.75,0,0,1-.64-.67.73.73,0,0,1,.49-.78L51,9.21a.76.76,0,0,1,.74.13.75.75,0,0,1,.26.71L50.21,20.37a.75.75,0,0,1-1.23.45Z"/><ellipse class="cls-3" cx="40.65" cy="23.32" rx="1.39" ry="3.07" transform="translate(-4.59 35.57) rotate(-45)"/><ellipse class="cls-3" cx="44.34" cy="27.86" rx="0.87" ry="1.92" transform="translate(-7.65 21.62) rotate(-25.3)"/></g><g id="Line"><path class="cls-4" d="M48.85,32.9A16.85,16.85,0,1,1,32,16.05,16.85,16.85,0,0,1,48.85,32.9Z"/><path class="cls-4" d="M37.24,12.74a.72.72,0,0,1-.4-.12s-1.43-.81-4.84-.81-4.83.81-4.84.81a.76.76,0,0,1-1.06-1l5.24-9.08a.77.77,0,0,1,1.32,0L37.9,11.6a.77.77,0,0,1-.66,1.14Z"/><path class="cls-4" d="M23.05,14.09a.94.94,0,0,1-.38.17s-1.62.29-4.23,2.48-3.18,3.73-3.19,3.74a.76.76,0,0,1-1.46-.11L12,10.05a.75.75,0,0,1,.26-.71A.76.76,0,0,1,13,9.21l9.85,3.58a.77.77,0,0,1,.5.8A.85.85,0,0,1,23.05,14.09Z"/><path class="cls-4" d="M13.05,24.24a.8.8,0,0,1-.18.37s-1.06,1.28-1.65,4.63,0,4.9,0,4.91a.77.77,0,0,1-.27.89A.75.75,0,0,1,10,35L2,28.28A.77.77,0,0,1,2.19,27L12,23.4a.76.76,0,0,1,.89.29A.78.78,0,0,1,13.05,24.24Z"/><path class="cls-4" d="M11.91,38.45a.7.7,0,0,1,.1.4s0,1.65,1.72,4.6,3.11,3.78,3.13,3.79a.77.77,0,0,1,.37.85.76.76,0,0,1-.73.57H6a.76.76,0,0,1-.66-.38.77.77,0,0,1,0-.75l5.24-9.08a.75.75,0,0,1,1.31,0Z"/><path class="cls-4" d="M20.18,50.06a.73.73,0,0,1,.33.25s1.07,1.26,4.27,2.42,4.82.89,4.83.89a.78.78,0,0,1,.84.42.75.75,0,0,1-.2.9l-8,6.74a.76.76,0,0,1-.74.13.78.78,0,0,1-.49-.58L19.17,50.91a.76.76,0,0,1,.44-.83A.8.8,0,0,1,20.18,50.06Z"/><path class="cls-4" d="M34,53.65a.75.75,0,0,1,.42,0s1.63.28,4.83-.89,4.26-2.41,4.27-2.42a.76.76,0,0,1,.9-.22.75.75,0,0,1,.44.82L43,61.23a.76.76,0,0,1-1.24.45l-8-6.74a.75.75,0,0,1-.2-.91A.78.78,0,0,1,34,53.65Z"/><path class="cls-4" d="M46.85,47.53a.81.81,0,0,1,.29-.29s1.43-.84,3.13-3.79S52,38.87,52,38.85a.77.77,0,0,1,.55-.75.76.76,0,0,1,.86.35l5.24,9.08a.77.77,0,0,1,0,.75.76.76,0,0,1-.66.38H47.5a.75.75,0,0,1-.73-.57A.72.72,0,0,1,46.85,47.53Z"/><path class="cls-4" d="M52.77,34.56a.84.84,0,0,1,0-.41s.56-1.56,0-4.91-1.64-4.61-1.65-4.63a.75.75,0,0,1-.05-.92A.74.74,0,0,1,52,23.4L61.81,27a.77.77,0,0,1,.48.58.74.74,0,0,1-.26.71L54,35a.75.75,0,0,1-.94,0A.8.8,0,0,1,52.77,34.56Z"/><path class="cls-4" d="M49,20.82a.67.67,0,0,1-.23-.34s-.58-1.55-3.19-3.74-4.22-2.48-4.23-2.49a.75.75,0,0,1-.64-.67.73.73,0,0,1,.49-.78L51,9.21a.76.76,0,0,1,.74.13.75.75,0,0,1,.26.71L50.21,20.37a.75.75,0,0,1-1.23.45Z"/><ellipse class="cls-5" cx="40.65" cy="23.32" rx="1.39" ry="3.07" transform="translate(-4.59 35.57) rotate(-45)"/><ellipse class="cls-5" cx="44.34" cy="27.86" rx="0.87" ry="1.92" transform="translate(-7.65 21.62) rotate(-25.3)"/></g><g id="Shadow" class="cls-6"><path d="M12.23,9.34a.75.75,0,0,0-.26.71l1.82,10.32a.76.76,0,0,0,1.46.11A10.49,10.49,0,0,1,18.19,17l-1.11-6.25L13,9.21A.76.76,0,0,0,12.23,9.34Z"/><path d="M36.84,12.62a.72.72,0,0,0,.4.12.77.77,0,0,0,.74-.91l-1,0a16.89,16.89,0,0,0-2.5.17A7.36,7.36,0,0,1,36.84,12.62Z"/><path d="M21,61.23a.78.78,0,0,0,.49.58.76.76,0,0,0,.74-.13l3.36-2.81-1.11-6.26a10.4,10.4,0,0,1-4-2.3.73.73,0,0,0-.33-.25.8.8,0,0,0-.57,0,.76.76,0,0,0-.44.83Z"/><path d="M1.71,27.56a.74.74,0,0,0,.26.71L10,35a.75.75,0,0,0,.92,0,.77.77,0,0,0,.27-.89A7.25,7.25,0,0,1,11,31.62L7,28.27a.74.74,0,0,1-.26-.71A.77.77,0,0,1,7.19,27l5.41-2a3.17,3.17,0,0,1,.27-.41.8.8,0,0,0,.18-.37.78.78,0,0,0-.12-.55A.76.76,0,0,0,12,23.4L2.19,27A.77.77,0,0,0,1.71,27.56Z"/><path d="M6,48.66h5a.76.76,0,0,1-.65-.38.77.77,0,0,1,0-.75l2.88-5A9.34,9.34,0,0,1,12,38.85a.7.7,0,0,0-.1-.4.75.75,0,0,0-1.31,0L5.36,47.53a.77.77,0,0,0,0,.75A.76.76,0,0,0,6,48.66Z"/><path d="M34.5,49.55a16.83,16.83,0,0,1,0-33.29,17.21,17.21,0,0,0-2.5-.21,16.84,16.84,0,0,0-14.09,7.62s0,0,0,0a.78.78,0,0,1,.12.55.8.8,0,0,1-.18.37s-1.06,1.28-1.65,4.63,0,4.9,0,4.91a.76.76,0,0,1-.87,1,16.38,16.38,0,0,0,.66,3,.74.74,0,0,1,.49,0,.78.78,0,0,1,.44.35.7.7,0,0,1,.1.4,9.83,9.83,0,0,0,1.35,3.93,16.84,16.84,0,0,0,13.64,7A17.21,17.21,0,0,0,34.5,49.55Z"/><path d="M31,11.83a.63.63,0,0,1,.08-.23l3.4-5.88-1.84-3.2a.77.77,0,0,0-1.32,0L26.1,11.6a.78.78,0,0,0-.07.54l1.21.44A10.26,10.26,0,0,1,31,11.83Z"/></g><g id="Highligth" class="cls-7"><path class="cls-8" d="M42.52,61.81a.78.78,0,0,0,.49-.58l1.82-10.32a.75.75,0,0,0-.44-.82.76.76,0,0,0-.9.22,10.28,10.28,0,0,1-4,2.3l-1.11,6.26,3.35,2.81A.78.78,0,0,0,42.52,61.81Z"/><path class="cls-8" d="M51.77,9.34A.76.76,0,0,0,51,9.21l-4.12,1.5L45.81,17a10.44,10.44,0,0,1,2.94,3.52.67.67,0,0,0,.23.34.75.75,0,0,0,1.23-.45L52,10.05A.75.75,0,0,0,51.77,9.34Z"/><path class="cls-8" d="M32.66,2.52a.77.77,0,0,0-1.32,0L29.5,5.72l3.4,5.88a.63.63,0,0,1,.08.23,10.26,10.26,0,0,1,3.78.75L38,12.14a.78.78,0,0,0-.07-.54Z"/><path class="cls-8" d="M27,11.81l-1,0a.75.75,0,0,0,1.14.79A7.68,7.68,0,0,1,29.5,12,16.89,16.89,0,0,0,27,11.81Z"/><path class="cls-8" d="M62.29,27.56a.77.77,0,0,0-.48-.58L52,23.4a.74.74,0,0,0-.88.29.75.75,0,0,0,.05.92,3.59,3.59,0,0,1,.27.41l5.41,2a.77.77,0,0,1,.48.58.74.74,0,0,1-.26.71l-4,3.35a7.22,7.22,0,0,1-.23,2.53.82.82,0,0,0,0,.41.8.8,0,0,0,.3.48A.75.75,0,0,0,54,35l8-6.74A.74.74,0,0,0,62.29,27.56Z"/><path class="cls-8" d="M58.64,48.28a.77.77,0,0,0,0-.75L53.4,38.45a.76.76,0,0,0-.86-.35.77.77,0,0,0-.55.75,9.3,9.3,0,0,1-1.23,3.69l2.88,5a.77.77,0,0,1,0,.75.76.76,0,0,1-.66.38h5A.76.76,0,0,0,58.64,48.28Z"/><path class="cls-8" d="M46.09,23.67A16.84,16.84,0,0,0,32,16.05a17.21,17.21,0,0,0-2.5.21,16.83,16.83,0,0,1,0,33.29,17.21,17.21,0,0,0,2.5.21,16.84,16.84,0,0,0,13.64-7A9.86,9.86,0,0,0,47,38.85a.77.77,0,0,1,.55-.75.79.79,0,0,1,.48,0,16.38,16.38,0,0,0,.66-3,.75.75,0,0,1-.61-.12.8.8,0,0,1-.3-.48.82.82,0,0,1,0-.41s.56-1.56,0-4.91-1.64-4.61-1.65-4.63a.75.75,0,0,1-.05-.92Z"/></g></g></g></svg>